<?xml version="1.0" encoding="UTF-8" standalone="no"?>
<svg width="172px" height="51px" viewBox="0 0 172 51" version="1.1" xmlns="http://www.w3.org/2000/svg" xmlns:xlink="http://www.w3.org/1999/xlink" xmlns:sketch="http://www.bohemiancoding.com/sketch/ns">
    <!-- Generator: Sketch 3.2.2 (9983) - http://www.bohemiancoding.com/sketch -->
    <title>Slice 1</title>
    <desc>Created with Sketch.</desc>
    <defs></defs>
    <g id="Page-1" stroke="none" stroke-width="1" fill="none" fill-rule="evenodd" sketch:type="MSPage">
        <g id="welldefined.io-logo" sketch:type="MSLayerGroup" fill="#000000">
            <path d="M166,15 C164.281241,15.0312502 162.859381,15.6093694 161.734375,16.734375 C160.609369,17.8593806 160.03125,19.2812414 160,21 C160,22.1250056 160.273435,23.132808 160.820312,24.0234375 C161.36719,24.914067 162.093745,25.6249973 163,26.15625 L163,27 C162.9375,28.5625078 162.312506,29.9374941 161.125,31.125 C159.937494,32.3125059 158.562508,32.9374997 157,33 C154.531238,33.0312502 152.531258,33.4843706 151,34.359375 L151,20.15625 C151.906255,19.6249973 152.63281,18.914067 153.179688,18.0234375 C153.726565,17.132808 154,16.1250056 154,15 C153.96875,13.2812414 153.390631,11.8593806 152.265625,10.734375 C151.140619,9.60936937 149.718759,9.03125016 148,9 C146.281241,9.03125016 144.859381,9.60936937 143.734375,10.734375 C142.609369,11.8593806 142.03125,13.2812414 142,15 C142,16.1250056 142.273435,17.132808 142.820312,18.0234375 C143.36719,18.914067 144.093745,19.6249973 145,20.15625 L145,39.796875 C144.093745,40.3281277 143.36719,41.039058 142.820312,41.9296875 C142.273435,42.820317 142,43.8281194 142,44.953125 C142.03125,46.6718836 142.609369,48.0937444 143.734375,49.21875 C144.859381,50.3437556 146.281241,50.9218748 148,50.953125 C149.718759,50.9218748 151.140619,50.3437556 152.265625,49.21875 C153.390631,48.0937444 153.96875,46.6718836 154,44.953125 C153.96875,43.3281169 153.437505,41.9687555 152.40625,40.875 C152.843752,40.3124972 153.437496,39.8515643 154.1875,39.4921875 C154.937504,39.1328107 155.874994,38.953125 157,38.953125 C160.125016,38.8281244 162.874988,37.5781369 165.25,35.203125 C167.625012,32.8281131 168.874999,30.0781406 169,26.953125 L169,26.109375 C169.906255,25.5781223 170.63281,24.867192 171.179688,23.9765625 C171.726565,23.085933 172,22.0781306 172,20.953125 C171.96875,19.2343664 171.390631,17.8125056 170.265625,16.6875 C169.140619,15.5624944 167.718759,14.9843752 166,14.953125 L166,15 Z M148,12 C148.843754,12.0312502 149.546872,12.3281222 150.109375,12.890625 C150.671878,13.4531278 150.953125,14.1562458 150.953125,15 C150.953125,15.8437542 150.671878,16.5468722 150.109375,17.109375 C149.546872,17.6718778 148.843754,17.953125 148,17.953125 C147.156246,17.953125 146.453128,17.6718778 145.890625,17.109375 C145.328122,16.5468722 145.046875,15.8437542 145.046875,15 C145.046875,14.1562458 145.328122,13.4531278 145.890625,12.890625 C146.453128,12.3281222 147.156246,12.0312502 148,12 L148,12 Z M148,48 C147.156246,47.9687498 146.453128,47.6718778 145.890625,47.109375 C145.328122,46.5468722 145.046875,45.8437542 145.046875,45 C145.046875,44.1562458 145.328122,43.4531278 145.890625,42.890625 C146.453128,42.3281222 147.156246,42.046875 148,42.046875 C148.843754,42.046875 149.546872,42.3281222 150.109375,42.890625 C150.671878,43.4531278 150.953125,44.1562458 150.953125,45 C150.953125,45.8437542 150.671878,46.5468722 150.109375,47.109375 C149.546872,47.6718778 148.843754,47.9687498 148,48 L148,48 Z M166,24 C165.156246,23.9687498 164.453128,23.6718778 163.890625,23.109375 C163.328122,22.5468722 163.046875,21.8437542 163.046875,21 C163.046875,20.1562458 163.328122,19.4531278 163.890625,18.890625 C164.453128,18.3281222 165.156246,18.046875 166,18.046875 C166.843754,18.046875 167.546872,18.3281222 168.109375,18.890625 C168.671878,19.4531278 168.953125,20.1562458 168.953125,21 C168.953125,21.8437542 168.671878,22.5468722 168.109375,23.109375 C167.546872,23.6718778 166.843754,23.9687498 166,24 L166,24 Z" id="" sketch:type="MSShapeGroup"></path>
            <path d="M19.8375,6.175 L15.7625,19 L13.2875,19 C13.0041653,19 12.8083339,18.8166685 12.7,18.45 L10.4,11.0375 C10.3249996,10.7874987 10.2562503,10.5395846 10.19375,10.29375 C10.1312497,10.0479154 10.0791669,9.80000125 10.0375,9.55 C9.98749975,9.80000125 9.93125031,10.0520821 9.86875,10.30625 C9.80624969,10.5604179 9.73750038,10.8124987 9.6625,11.0625 L7.325,18.45 C7.2249995,18.8166685 7.00416838,19 6.6625,19 L4.2875,19 L0.225,6.175 L2.6875,6.175 C2.91250113,6.175 3.10416588,6.22916612 3.2625,6.3375 C3.42083413,6.44583387 3.52499975,6.5833325 3.575,6.75 L5.4125,13.6 C5.50416713,13.9750019 5.58541631,14.3416649 5.65625,14.7 C5.72708369,15.0583351 5.78749975,15.4166649 5.8375,15.775 C5.92916713,15.4166649 6.02708281,15.0583351 6.13125,14.7 C6.23541719,14.3416649 6.34583275,13.9750019 6.4625,13.6 L8.5875,6.725 C8.63750025,6.5583325 8.73541594,6.42083387 8.88125,6.3125 C9.02708406,6.20416613 9.20416563,6.15 9.4125,6.15 L10.775,6.15 C10.9916678,6.15 11.1770826,6.20416613 11.33125,6.3125 C11.4854174,6.42083387 11.5874998,6.5583325 11.6375,6.725 L13.7,13.6 C13.8083339,13.9750019 13.9104162,14.3437482 14.00625,14.70625 C14.1020838,15.0687518 14.1958329,15.4291649 14.2875,15.7875 C14.3958339,15.0791631 14.549999,14.3500037 14.75,13.6 L16.6375,6.75 C16.6958336,6.5833325 16.7999992,6.44583387 16.95,6.3375 C17.1000007,6.22916612 17.2791656,6.175 17.4875,6.175 L19.8375,6.175 Z M29.85,11.1125 C29.85,10.712498 29.7937506,10.3354184 29.68125,9.98125 C29.5687494,9.62708156 29.4000011,9.316668 29.175,9.05 C28.9499989,8.783332 28.6645851,8.57291744 28.31875,8.41875 C27.9729149,8.26458256 27.5708356,8.1875 27.1125,8.1875 C26.2208289,8.1875 25.5187526,8.44166412 25.00625,8.95 C24.4937474,9.45833587 24.1666674,10.179162 24.025,11.1125 L29.85,11.1125 Z M23.9625,12.975 C24.0125003,13.6333366 24.1291658,14.2020809 24.3125,14.68125 C24.4958343,15.1604191 24.7374985,15.5562484 25.0375,15.86875 C25.3375015,16.1812516 25.6937479,16.4145826 26.10625,16.56875 C26.5187521,16.7229174 26.9749975,16.8 27.475,16.8 C27.9750025,16.8 28.4062482,16.7416672 28.76875,16.625 C29.1312518,16.5083328 29.4479153,16.3791674 29.71875,16.2375 C29.9895847,16.0958326 30.2270823,15.9666673 30.43125,15.85 C30.6354177,15.7333328 30.8333324,15.675 31.025,15.675 C31.2833346,15.675 31.4749994,15.7708324 31.6,15.9625 L32.4875,17.0875 C32.1458316,17.487502 31.7625021,17.8229153 31.3375,18.09375 C30.9124979,18.3645847 30.4687523,18.5812492 30.00625,18.74375 C29.5437477,18.9062508 29.0729191,19.020833 28.59375,19.0875 C28.1145809,19.154167 27.6500023,19.1875 27.2,19.1875 C26.3083289,19.1875 25.4791705,19.0395848 24.7125,18.74375 C23.9458295,18.4479152 23.2791695,18.0104196 22.7125,17.43125 C22.1458305,16.8520804 21.7000016,16.1354209 21.375,15.28125 C21.0499984,14.4270791 20.8875,13.4375056 20.8875,12.3125 C20.8875,11.4374956 21.0291653,10.6145872 21.3125,9.84375 C21.5958348,9.07291281 22.0020807,8.40208619 22.53125,7.83125 C23.0604193,7.26041381 23.7062462,6.808335 24.46875,6.475 C25.2312538,6.141665 26.0916619,5.975 27.05,5.975 C27.8583374,5.975 28.6041633,6.10416538 29.2875,6.3625 C29.9708368,6.62083462 30.5583309,6.99791419 31.05,7.49375 C31.5416691,7.98958581 31.9270819,8.59791306 32.20625,9.31875 C32.4854181,10.0395869 32.625,10.8624954 32.625,11.7875 C32.625,12.254169 32.5750005,12.5687492 32.475,12.73125 C32.3749995,12.8937508 32.1833348,12.975 31.9,12.975 L23.9625,12.975 Z M38.0625,0.425 L38.0625,19 L34.975,19 L34.975,0.425 L38.0625,0.425 Z M44.275,0.425 L44.275,19 L41.1875,19 L41.1875,0.425 L44.275,0.425 Z M55.4125,9.45 C55.0624983,9.02499788 54.6812521,8.72500087 54.26875,8.55 C53.8562479,8.37499912 53.4125024,8.2875 52.9375,8.2875 C52.470831,8.2875 52.0500019,8.37499912 51.675,8.55 C51.2999981,8.72500087 50.979168,8.98958156 50.7125,9.34375 C50.445832,9.69791844 50.2416674,10.1479139 50.1,10.69375 C49.9583326,11.2395861 49.8875,11.8833296 49.8875,12.625 C49.8875,13.3750038 49.9479161,14.0104141 50.06875,14.53125 C50.1895839,15.0520859 50.3624989,15.4770817 50.5875,15.80625 C50.8125011,16.1354183 51.0874984,16.3729159 51.4125,16.51875 C51.7375016,16.6645841 52.099998,16.7375 52.5,16.7375 C53.1416699,16.7375 53.6874977,16.604168 54.1375,16.3375 C54.5875023,16.070832 55.012498,15.6916691 55.4125,15.2 L55.4125,9.45 Z M58.5,0.425 L58.5,19 L56.6125,19 C56.2041646,19 55.9458339,18.8125019 55.8375,18.4375 L55.575,17.2 C55.0583307,17.7916696 54.4645867,18.2708315 53.79375,18.6375 C53.1229133,19.0041685 52.3416711,19.1875 51.45,19.1875 C50.7499965,19.1875 50.1083362,19.0416681 49.525,18.75 C48.9416638,18.4583319 48.4395854,18.0354194 48.01875,17.48125 C47.5979146,16.9270806 47.2729178,16.2416708 47.04375,15.425 C46.8145822,14.6083293 46.7,13.6750052 46.7,12.625 C46.7,11.6749952 46.8291654,10.7916707 47.0875,9.975 C47.3458346,9.15832925 47.7166643,8.450003 48.2,7.85 C48.6833357,7.249997 49.2624966,6.78125169 49.9375,6.44375 C50.6125034,6.10624831 51.3708291,5.9375 52.2125,5.9375 C52.9291702,5.9375 53.5416641,6.04999887 54.05,6.275 C54.5583359,6.50000112 55.012498,6.80416475 55.4125,7.1875 L55.4125,0.425 L58.5,0.425 Z M69.8125,11.1125 C69.8125,10.712498 69.7562506,10.3354184 69.64375,9.98125 C69.5312494,9.62708156 69.3625011,9.316668 69.1375,9.05 C68.9124989,8.783332 68.6270851,8.57291744 68.28125,8.41875 C67.9354149,8.26458256 67.5333356,8.1875 67.075,8.1875 C66.1833289,8.1875 65.4812526,8.44166412 64.96875,8.95 C64.4562474,9.45833587 64.1291674,10.179162 63.9875,11.1125 L69.8125,11.1125 Z M63.925,12.975 C63.9750003,13.6333366 64.0916658,14.2020809 64.275,14.68125 C64.4583343,15.1604191 64.6999985,15.5562484 65,15.86875 C65.3000015,16.1812516 65.6562479,16.4145826 66.06875,16.56875 C66.4812521,16.7229174 66.9374975,16.8 67.4375,16.8 C67.9375025,16.8 68.3687482,16.7416672 68.73125,16.625 C69.0937518,16.5083328 69.4104153,16.3791674 69.68125,16.2375 C69.9520847,16.0958326 70.1895823,15.9666673 70.39375,15.85 C70.5979177,15.7333328 70.7958324,15.675 70.9875,15.675 C71.2458346,15.675 71.4374994,15.7708324 71.5625,15.9625 L72.45,17.0875 C72.1083316,17.487502 71.7250021,17.8229153 71.3,18.09375 C70.8749979,18.3645847 70.4312523,18.5812492 69.96875,18.74375 C69.5062477,18.9062508 69.0354191,19.020833 68.55625,19.0875 C68.0770809,19.154167 67.6125023,19.1875 67.1625,19.1875 C66.2708289,19.1875 65.4416705,19.0395848 64.675,18.74375 C63.9083295,18.4479152 63.2416695,18.0104196 62.675,17.43125 C62.1083305,16.8520804 61.6625016,16.1354209 61.3375,15.28125 C61.0124984,14.4270791 60.85,13.4375056 60.85,12.3125 C60.85,11.4374956 60.9916653,10.6145872 61.275,9.84375 C61.5583348,9.07291281 61.9645807,8.40208619 62.49375,7.83125 C63.0229193,7.26041381 63.6687462,6.808335 64.43125,6.475 C65.1937538,6.141665 66.0541619,5.975 67.0125,5.975 C67.8208374,5.975 68.5666633,6.10416538 69.25,6.3625 C69.9333367,6.62083462 70.5208309,6.99791419 71.0125,7.49375 C71.5041691,7.98958581 71.8895819,8.59791306 72.16875,9.31875 C72.4479181,10.0395869 72.5875,10.8624954 72.5875,11.7875 C72.5875,12.254169 72.5375005,12.5687492 72.4375,12.73125 C72.3374995,12.8937508 72.1458348,12.975 71.8625,12.975 L63.925,12.975 Z M75.8125,19 L75.8125,8.5 L74.7,8.325 C74.4583321,8.27499975 74.2645841,8.18958394 74.11875,8.06875 C73.9729159,7.94791606 73.9,7.77500112 73.9,7.55 L73.9,6.2875 L75.8125,6.2875 L75.8125,5.875 C75.8125,5.09166275 75.9416654,4.36458669 76.2,3.69375 C76.4583346,3.02291331 76.8499974,2.44166913 77.375,1.95 C77.9000026,1.45833088 78.5645793,1.07291806 79.36875,0.79375 C80.1729207,0.514581937 81.1208279,0.375 82.2125,0.375 C82.5625017,0.375 82.9187482,0.393749812 83.28125,0.43125 C83.6437518,0.468750187 83.958332,0.52916625 84.225,0.6125 L84.125,2.2125 C84.1083332,2.40416762 84.0041676,2.51874981 83.8125,2.55625 C83.6208324,2.59375019 83.3833348,2.6125 83.1,2.6125 C82.2916626,2.6125 81.6145861,2.68333262 81.06875,2.825 C80.5229139,2.96666738 80.0812517,3.17708194 79.74375,3.45625 C79.4062483,3.73541806 79.1645841,4.08541456 79.01875,4.50625 C78.8729159,4.92708544 78.8,5.41666387 78.8,5.975 L78.8,6.2875 L86.75,6.2875 L86.75,19 L83.6625,19 L83.6625,8.4875 L78.9,8.4875 L78.9,19 L75.8125,19 Z M92.8,7.75 C93.0583346,7.49166537 93.3312486,7.25208444 93.61875,7.03125 C93.9062514,6.81041556 94.2104151,6.62291744 94.53125,6.46875 C94.8520849,6.31458256 95.1958315,6.19375044 95.5625,6.10625 C95.9291685,6.01874956 96.3291645,5.975 96.7625,5.975 C97.4625035,5.975 98.0833306,6.09374881 98.625,6.33125 C99.1666694,6.56875119 99.6187482,6.90208119 99.98125,7.33125 C100.343752,7.76041881 100.618749,8.27291369 100.80625,8.86875 C100.993751,9.46458631 101.0875,10.1208297 101.0875,10.8375 L101.0875,19 L98,19 L98,10.8375 C98,10.0541627 97.8208351,9.44791881 97.4625,9.01875 C97.1041649,8.58958119 96.558337,8.375 95.825,8.375 C95.291664,8.375 94.791669,8.49583212 94.325,8.7375 C93.858331,8.97916787 93.4166687,9.30833125 93,9.725 L93,19 L89.9125,19 L89.9125,6.175 L91.8,6.175 C92.200002,6.175 92.4624994,6.36249812 92.5875,6.7375 L92.8,7.75 Z M112.275,11.1125 C112.275,10.712498 112.218751,10.3354184 112.10625,9.98125 C111.993749,9.62708156 111.825001,9.316668 111.6,9.05 C111.374999,8.783332 111.089585,8.57291744 110.74375,8.41875 C110.397915,8.26458256 109.995836,8.1875 109.5375,8.1875 C108.645829,8.1875 107.943753,8.44166412 107.43125,8.95 C106.918747,9.45833587 106.591667,10.179162 106.45,11.1125 L112.275,11.1125 Z M106.3875,12.975 C106.4375,13.6333366 106.554166,14.2020809 106.7375,14.68125 C106.920834,15.1604191 107.162498,15.5562484 107.4625,15.86875 C107.762501,16.1812516 108.118748,16.4145826 108.53125,16.56875 C108.943752,16.7229174 109.399998,16.8 109.9,16.8 C110.400002,16.8 110.831248,16.7416672 111.19375,16.625 C111.556252,16.5083328 111.872915,16.3791674 112.14375,16.2375 C112.414585,16.0958326 112.652082,15.9666673 112.85625,15.85 C113.060418,15.7333328 113.258332,15.675 113.45,15.675 C113.708335,15.675 113.899999,15.7708324 114.025,15.9625 L114.9125,17.0875 C114.570832,17.487502 114.187502,17.8229153 113.7625,18.09375 C113.337498,18.3645847 112.893752,18.5812492 112.43125,18.74375 C111.968748,18.9062508 111.497919,19.020833 111.01875,19.0875 C110.539581,19.154167 110.075002,19.1875 109.625,19.1875 C108.733329,19.1875 107.904171,19.0395848 107.1375,18.74375 C106.37083,18.4479152 105.70417,18.0104196 105.1375,17.43125 C104.57083,16.8520804 104.125002,16.1354209 103.8,15.28125 C103.474998,14.4270791 103.3125,13.4375056 103.3125,12.3125 C103.3125,11.4374956 103.454165,10.6145872 103.7375,9.84375 C104.020835,9.07291281 104.427081,8.40208619 104.95625,7.83125 C105.485419,7.26041381 106.131246,6.808335 106.89375,6.475 C107.656254,6.141665 108.516662,5.975 109.475,5.975 C110.283337,5.975 111.029163,6.10416538 111.7125,6.3625 C112.395837,6.62083462 112.983331,6.99791419 113.475,7.49375 C113.966669,7.98958581 114.352082,8.59791306 114.63125,9.31875 C114.910418,10.0395869 115.05,10.8624954 115.05,11.7875 C115.05,12.254169 115,12.5687492 114.9,12.73125 C114.8,12.8937508 114.608335,12.975 114.325,12.975 L106.3875,12.975 Z M125.4125,9.45 C125.062498,9.02499788 124.681252,8.72500087 124.26875,8.55 C123.856248,8.37499912 123.412502,8.2875 122.9375,8.2875 C122.470831,8.2875 122.050002,8.37499912 121.675,8.55 C121.299998,8.72500087 120.979168,8.98958156 120.7125,9.34375 C120.445832,9.69791844 120.241667,10.1479139 120.1,10.69375 C119.958333,11.2395861 119.8875,11.8833296 119.8875,12.625 C119.8875,13.3750038 119.947916,14.0104141 120.06875,14.53125 C120.189584,15.0520859 120.362499,15.4770817 120.5875,15.80625 C120.812501,16.1354183 121.087498,16.3729159 121.4125,16.51875 C121.737502,16.6645841 122.099998,16.7375 122.5,16.7375 C123.14167,16.7375 123.687498,16.604168 124.1375,16.3375 C124.587502,16.070832 125.012498,15.6916691 125.4125,15.2 L125.4125,9.45 Z M128.5,0.425 L128.5,19 L126.6125,19 C126.204165,19 125.945834,18.8125019 125.8375,18.4375 L125.575,17.2 C125.058331,17.7916696 124.464587,18.2708315 123.79375,18.6375 C123.122913,19.0041685 122.341671,19.1875 121.45,19.1875 C120.749997,19.1875 120.108336,19.0416681 119.525,18.75 C118.941664,18.4583319 118.439585,18.0354194 118.01875,17.48125 C117.597915,16.9270806 117.272918,16.2416708 117.04375,15.425 C116.814582,14.6083293 116.7,13.6750052 116.7,12.625 C116.7,11.6749952 116.829165,10.7916707 117.0875,9.975 C117.345835,9.15832925 117.716664,8.450003 118.2,7.85 C118.683336,7.249997 119.262497,6.78125169 119.9375,6.44375 C120.612503,6.10624831 121.370829,5.9375 122.2125,5.9375 C122.92917,5.9375 123.541664,6.04999887 124.05,6.275 C124.558336,6.50000112 125.012498,6.80416475 125.4125,7.1875 L125.4125,0.425 L128.5,0.425 Z M131.1,17.3 C131.1,17.0416654 131.147916,16.7958345 131.24375,16.5625 C131.339584,16.3291655 131.470833,16.1291675 131.6375,15.9625 C131.804168,15.7958325 132.004165,15.6625005 132.2375,15.5625 C132.470835,15.4624995 132.720832,15.4125 132.9875,15.4125 C133.254168,15.4125 133.502082,15.4624995 133.73125,15.5625 C133.960418,15.6625005 134.160416,15.7958325 134.33125,15.9625 C134.502084,16.1291675 134.637499,16.3291655 134.7375,16.5625 C134.837501,16.7958345 134.8875,17.0416654 134.8875,17.3 C134.8875,17.566668 134.837501,17.8145822 134.7375,18.04375 C134.637499,18.2729178 134.502084,18.4708325 134.33125,18.6375 C134.160416,18.8041675 133.960418,18.9354162 133.73125,19.03125 C133.502082,19.1270838 133.254168,19.175 132.9875,19.175 C132.720832,19.175 132.470835,19.1270838 132.2375,19.03125 C132.004165,18.9354162 131.804168,18.8041675 131.6375,18.6375 C131.470833,18.4708325 131.339584,18.2729178 131.24375,18.04375 C131.147916,17.8145822 131.1,17.566668 131.1,17.3 L131.1,17.3 Z M140.6875,6.175 L140.6875,19 L137.5875,19 L137.5875,6.175 L140.6875,6.175 Z M141.1125,2.4375 C141.1125,2.704168 141.058334,2.9541655 140.95,3.1875 C140.841666,3.4208345 140.697918,3.62499912 140.51875,3.8 C140.339582,3.97500087 140.129168,4.11458281 139.8875,4.21875 C139.645832,4.32291719 139.387501,4.375 139.1125,4.375 C138.845832,4.375 138.593751,4.32291719 138.35625,4.21875 C138.118749,4.11458281 137.912501,3.97500087 137.7375,3.8 C137.562499,3.62499912 137.422917,3.4208345 137.31875,3.1875 C137.214583,2.9541655 137.1625,2.704168 137.1625,2.4375 C137.1625,2.16249862 137.214583,1.90416787 137.31875,1.6625 C137.422917,1.42083213 137.562499,1.21250087 137.7375,1.0375 C137.912501,0.862499125 138.118749,0.722917187 138.35625,0.61875 C138.593751,0.514582812 138.845832,0.4625 139.1125,0.4625 C139.387501,0.4625 139.645832,0.514582812 139.8875,0.61875 C140.129168,0.722917187 140.339582,0.862499125 140.51875,1.0375 C140.697918,1.21250087 140.841666,1.42083213 140.95,1.6625 C141.058334,1.90416787 141.1125,2.16249862 141.1125,2.4375 L141.1125,2.4375 Z" id="welldefined.i" sketch:type="MSShapeGroup"></path>
        </g>
    </g>
</svg>